<?xml version="1.0" encoding="utf-8"?>
<!-- Generator: Adobe Illustrator 23.0.5, SVG Export Plug-In . SVG Version: 6.00 Build 0)  -->
<svg version="1.1" id="Layer_1" xmlns="http://www.w3.org/2000/svg" xmlns:xlink="http://www.w3.org/1999/xlink" x="0px" y="0px"
	 viewBox="0 0 297 81" style="enable-background:new 0 0 297 81;" xml:space="preserve">
<style type="text/css">
	.st0{fill:#50B348;}
	.st1{fill:#05181A;}
	.st2{fill:#081A1A;}
	.st3{fill:#081A1A;stroke:#031819;stroke-width:0.25;stroke-miterlimit:10;}
	.st4{fill:none;stroke:#031819;stroke-width:0.25;stroke-miterlimit:10;}
</style>
<path id="XMLID_460_" class="st0" d="M54.16,22.55c-0.04,4.15,0.86,6.64,4.11,6.76l0.85,0.01c3.9,2.91,3.03,10.53,3.24,12.13
	c-0.24,1.59,0.49,9.24-3.47,12.06l-0.85-0.01c-3.25,0.05-4.2,2.52-4.24,6.67l0,0c-0.04,3.69-0.64,6.71,2.07,6.74l1.7,0.02
	c2.08,0.02,3.99-0.63,5.44-1.71l0,0c0,0,3.97-2.47,5.69-8.48c0.46-1.59,0.67-3.22,0.69-4.86l0.1-10.35l0.1-10.35
	c0.02-1.64-0.17-3.27-0.59-4.87c-1.61-6.04-5.52-8.6-5.52-8.6l0,0c-1.42-1.11-3.32-1.8-5.4-1.83l-1.7-0.02
	C53.65,15.83,54.2,18.86,54.16,22.55L54.16,22.55z"/>
<g>
	<g>
		<path class="st1" d="M5.29,29.1c-0.01-2.64,1.16-4.82,3.51-6.53c2.22-1.61,4.87-2.42,7.96-2.43c2.69-0.01,5.09,0.62,7.21,1.9
			c2.38,1.43,4.07,3.5,5.06,6.2c0.2,0.53,1.11,3.46,2.73,8.8c1.51,4.99,2.79,8.78,3.84,11.36c1.5,3.71,2.73,5.51,3.69,5.38
			c0.65-0.15,1.08-0.38,1.32-0.71c0.23-0.33,0.35-0.78,0.35-1.37l-0.1-31.02l10.04-0.03l0.11,33.16c0.01,3.03-1.23,5.34-3.72,6.93
			c-2.15,1.37-4.91,2.06-8.27,2.07c-4.47,0.01-8.05-2.04-10.74-6.18c-1.79-2.74-3.49-7.18-5.12-13.33
			c-1.8-6.74-3.12-10.94-3.95-12.6c-0.22-0.43-0.53-0.75-0.9-0.97c-0.38-0.22-0.77-0.33-1.17-0.33c-0.49,0-0.91,0.18-1.27,0.54
			c-0.35,0.36-0.53,0.85-0.53,1.48l0.1,31.02L5.39,62.44L5.29,29.1z"/>
	</g>
</g>
<g>
	<path class="st2" d="M96,48.75c0,1.31-0.53,2.39-1.6,3.24c-1.01,0.8-2.21,1.2-3.62,1.2c-1.22,0-2.31-0.32-3.27-0.95
		c-1.08-0.72-1.84-1.75-2.28-3.09c-0.09-0.26-0.5-1.72-1.23-4.37c-0.68-2.48-1.25-4.36-1.73-5.64c-0.68-1.85-1.23-2.74-1.66-2.68
		c-0.29,0.07-0.49,0.19-0.6,0.35c-0.11,0.16-0.16,0.39-0.16,0.68v15.4H75.3V36.42c0-1.5,0.57-2.65,1.7-3.43
		c0.98-0.68,2.23-1.01,3.76-1.01c2.03,0,3.65,1.03,4.86,3.09c0.81,1.36,1.57,3.57,2.3,6.63c0.81,3.35,1.4,5.44,1.77,6.26
		c0.1,0.21,0.24,0.37,0.41,0.48c0.17,0.11,0.35,0.17,0.53,0.17c0.22,0,0.41-0.09,0.58-0.27c0.16-0.18,0.24-0.42,0.24-0.73v-15.4H96
		V48.75z"/>
	<path class="st2" d="M105.84,53.17c-1.36,0-4.43-0.31-6.29-1.61c-0.68-0.46-1.24-1.64-1.43-2.51c-0.19-0.9-0.28-1.86-0.28-2.94
		V35.45h4.74v9.79c0,1.43,0.25,2.2,0.68,2.88c0.43,0.71,1.43,1.05,2.54,1.05c1.3,0,2.2-0.34,2.79-1.08
		c0.56-0.74,0.81-1.61,0.81-2.67v-0.19c0,0,0-2.42,0-4.31v-2.05c0-1.86,0.9-2.54,1.64-2.88c1.15-0.56,3.04-0.56,3.04-0.56v10.66
		c0,0.87-0.09,1.8-0.37,2.85c-0.31,1.05-0.96,2.08-1.52,2.54C110.67,52.77,107.39,53.17,105.84,53.17z"/>
	<path class="st2" d="M144.23,42.39v10.57c0,0-1.86,0-3.01-0.53c-0.74-0.34-1.67-0.99-1.67-2.88c0-0.87,0-6.32,0-6.32v-0.19
		c0-1.05-0.25-1.92-0.77-2.63c-0.59-0.77-1.49-1.12-2.79-1.12c-1.12,0-2.08,0.34-2.54,1.05c-0.43,0.71-0.65,1.46-0.65,2.88v9.73
		h-4.74V42.48c-0.09-0.81-0.34-1.49-0.77-2.08c-0.59-0.77-1.49-1.12-2.79-1.12c-1.12,0-2.08,0.34-2.54,1.05
		c-0.43,0.71-0.65,1.46-0.65,2.88v9.73h-4.74v-10.6c0-1.05,0.09-2.05,0.28-2.91c0.19-0.9,0.74-2.05,1.43-2.54
		c1.83-1.27,4.9-1.58,6.29-1.58c1.33,0,4.06,0.31,5.73,1.27c1.86-1.02,4.49-1.27,5.73-1.27c1.55,0,4.83,0.37,6.32,1.67
		c0.56,0.46,1.24,1.46,1.52,2.51C144.14,40.56,144.23,41.49,144.23,42.39z"/>
	<path class="st2" d="M149.81,31.6v5.7c0.59-0.59,1.55-1.18,2.32-1.52c0.99-0.4,1.98-0.59,3.04-0.59c0.84,0,1.67,0.19,2.51,0.53
		c0.81,0.34,1.55,0.87,2.23,1.58c0.65,0.71,1.18,1.64,1.61,2.76c0.4,1.12,0.62,2.45,0.62,4c0,1.55-0.22,2.88-0.62,4
		c-0.43,1.12-0.96,2.01-1.61,2.73c-0.68,0.74-1.43,1.27-2.23,1.61c-0.84,0.34-2.32,0.9-4.15,0.9c-1.21,0-3.35-0.28-5.08-1.36
		c-1.18-0.74-1.92-1.89-2.36-2.85c-0.31-0.62-0.81-2.57-0.9-4.12c-0.03-0.9-0.03-16.21-0.03-16.21h1.46c1.21,0,1.86,0.22,2.39,0.81
		C149.5,30.12,149.81,30.67,149.81,31.6z M156.57,40.96c-0.34-0.5-0.74-0.9-1.24-1.21c-0.46-0.28-1.05-0.43-1.77-0.43
		c-0.68,0-1.24,0.15-1.77,0.43c-0.5,0.31-0.9,0.71-1.24,1.21c-0.31,0.5-0.56,1.05-0.71,1.7c-0.16,0.65-0.19,1.12-0.19,1.43
		c0,0.5,0.03,1.05,0.19,1.7c0.16,0.65,0.4,1.24,0.71,1.74c0.34,0.5,0.74,0.9,1.24,1.18c0.53,0.31,1.08,0.46,1.77,0.46
		c0.71,0,1.3-0.15,1.77-0.46c0.5-0.28,0.9-0.68,1.24-1.18c0.31-0.5,0.56-1.08,0.71-1.74c0.16-0.65,0.19-1.15,0.19-1.7v-0.22
		c0-0.34-0.06-0.65-0.19-1.21C157.12,42.02,156.88,41.46,156.57,40.96z"/>
	<path class="st2" d="M175.81,51.93c-0.71,0.43-1.55,0.77-2.23,0.93c-0.74,0.22-1.89,0.34-2.94,0.37h-0.4
		c-3.16,0-5.58-1.33-6.38-2.45c-0.56-0.81-0.68-1.39-0.68-2.39c0,0-0.09-1.74-0.09-3.66c0-1.49,0.06-3.07,0.25-4
		c0.34-1.55,1.18-3.1,2.42-3.94c1.61-1.05,3.25-1.61,5.42-1.61c0.9,0,2.08,0,3.9,0.65c0.62,0.25,1.33,0.65,1.8,1.12
		c0.34,0.31,0.81,0.93,1.08,1.55c0.28,0.62,0.43,1.33,0.43,2.17c0,0.93-0.25,1.67-0.5,2.29c-0.74,1.86-2.36,2.51-2.94,2.73
		c-0.03,0-0.06,0.03-0.09,0.03c-0.65,0.22-1.33,0.31-2.01,0.4c-0.68,0.12-1.33,0.22-1.98,0.28c-0.68,0.06-1.08,0.06-1.58,0.22
		c-0.5,0.12-0.9,0.31-1.18,0.56c-0.28,0.22-0.46,0.5-0.46,0.81c0,0.34,0.06,0.71,0.22,0.99c0.43,0.68,1.77,0.87,3.1,0.87
		c0.9,0,1.58-0.19,2.08-0.56c0.53-0.37,0.84-0.87,0.9-1.55h4.49c-0.09,0.71-0.31,1.74-0.78,2.45
		C177.17,50.88,176.52,51.53,175.81,51.93z M169.33,43.19c0.31-0.06,0.65-0.12,1.02-0.16c0.34-0.03,0.71-0.09,1.05-0.16
		c0.34-0.06,0.68-0.15,1.02-0.25c0.31-0.12,0.62-0.22,0.84-0.43c0.4-0.4,0.81-0.81,0.81-1.58v-0.15c0-0.34-0.09-0.62-0.22-0.87
		c-0.16-0.28-0.34-0.46-0.59-0.62c-0.25-0.16-0.56-0.28-0.9-0.34s-0.68-0.09-1.05-0.09c-0.87,0-1.55,0.15-2.04,0.46
		c-0.5,0.28-0.84,0.65-1.08,1.05c-0.22,0.4-0.37,0.84-0.43,1.24c-0.03,0.43-0.06,0.77-0.06,1.02v1.49c0.19-0.15,0.43-0.28,0.71-0.37
		C168.68,43.35,168.99,43.25,169.33,43.19z"/>
	<path class="st2" d="M185.01,35.91c1.42-0.62,3.29-0.62,4.65-0.62h0.19c0.34,0,0.78,0.03,1.15,0.12v4.4
		c-0.22-0.06-0.46-0.09-0.77-0.12c-0.31-0.03-0.62-0.06-0.9-0.06c-0.87,0-1.61,0.16-2.2,0.43s-1.08,0.68-1.43,1.18
		c-0.37,0.5-0.68,1.05-0.84,1.71c-0.16,0.68-0.19,1.43-0.19,2.2v7.81h-4.71c0,0,0-8.83,0-9.98c0-1.71,0.43-3.66,2.11-5.24
		C183.12,36.72,184.49,36.13,185.01,35.91z"/>
	<path class="st2" d="M209.76,52.88h-10.05V32.36h10.05c2.37,0,4.26,1.09,5.67,3.27c1.27,1.97,1.91,4.35,1.91,7.17
		c0,2.76-0.62,5.08-1.86,6.94C214.08,51.83,212.18,52.88,209.76,52.88z M209,48.43c1.08,0,1.95-0.63,2.6-1.89
		c0.58-1.13,0.88-2.5,0.88-4.13c0-1.57-0.28-2.89-0.85-3.94c-0.63-1.19-1.51-1.78-2.63-1.78h-4.74v11.74H209z"/>
	<path class="st2" d="M231.59,51.93c-0.71,0.43-1.55,0.77-2.23,0.93c-0.74,0.22-1.89,0.34-2.94,0.37h-0.4
		c-3.16,0-5.58-1.33-6.38-2.45c-0.56-0.81-0.68-1.39-0.68-2.39c0,0-0.09-1.74-0.09-3.66c0-1.49,0.06-3.07,0.25-4
		c0.34-1.55,1.18-3.1,2.42-3.94c1.61-1.05,3.25-1.61,5.42-1.61c0.9,0,2.08,0,3.9,0.65c0.62,0.25,1.33,0.65,1.8,1.12
		c0.34,0.31,0.81,0.93,1.08,1.55c0.28,0.62,0.43,1.33,0.43,2.17c0,0.93-0.25,1.67-0.5,2.29c-0.74,1.86-2.36,2.51-2.94,2.73
		c-0.03,0-0.06,0.03-0.09,0.03c-0.65,0.22-1.33,0.31-2.01,0.4c-0.68,0.12-1.33,0.22-1.98,0.28c-0.68,0.06-1.08,0.06-1.58,0.22
		c-0.5,0.12-0.9,0.31-1.18,0.56c-0.28,0.22-0.46,0.5-0.46,0.81c0,0.34,0.06,0.71,0.22,0.99c0.43,0.68,1.77,0.87,3.1,0.87
		c0.9,0,1.58-0.19,2.08-0.56c0.53-0.37,0.84-0.87,0.9-1.55h4.49c-0.09,0.71-0.31,1.74-0.78,2.45
		C232.96,50.88,232.31,51.53,231.59,51.93z M225.12,43.19c0.31-0.06,0.65-0.12,1.02-0.16c0.34-0.03,0.71-0.09,1.05-0.16
		c0.34-0.06,0.68-0.15,1.02-0.25c0.31-0.12,0.62-0.22,0.84-0.43c0.4-0.4,0.81-0.81,0.81-1.58v-0.15c0-0.34-0.09-0.62-0.22-0.87
		c-0.16-0.28-0.34-0.46-0.59-0.62c-0.25-0.16-0.56-0.28-0.9-0.34s-0.68-0.09-1.05-0.09c-0.87,0-1.55,0.15-2.04,0.46
		c-0.5,0.28-0.84,0.65-1.08,1.05c-0.22,0.4-0.37,0.84-0.43,1.24c-0.03,0.43-0.06,0.77-0.06,1.02v1.49c0.19-0.15,0.43-0.28,0.71-0.37
		C224.47,43.35,224.78,43.25,225.12,43.19z"/>
	<path class="st2" d="M241.48,31.76v9.98l6.07-6.29h5.7l-6.6,6.45L254,52.96h-2.01c-1.05,0-2.39-0.28-3.5-0.96
		c-0.93-0.59-1.64-1.24-2.08-1.89l-3.04-4.96l-1.89,1.8v6.01h-4.8v-24.2h0.96c1.55,0,2.36,0.37,2.85,0.84
		C241.05,30.08,241.48,30.89,241.48,31.76z"/>
	<path class="st2" d="M260.26,31.57v5.05c1.61-1.12,3.47-1.39,4.71-1.39h0.37c1.24,0.03,2.29,0.34,3.1,0.68
		c0.81,0.34,1.43,0.81,1.89,1.43c0.46,0.59,0.81,1.33,0.99,2.2c0.19,0.87,0.28,1.83,0.28,2.91v10.51h-1.08
		c-1.33,0-2.23-0.25-2.91-0.9c-0.59-0.56-0.71-1.3-0.71-2.39v-6.38c0-1.39-0.06-2.17-0.59-3.04c-0.43-0.71-1.52-1.08-2.67-1.08
		c-0.74,0-2.01,0.34-2.6,1.08c-0.77,0.99-0.77,1.95-0.77,3.56v9.14h-4.71v-24.2h1.43c1.55,0,2.08,0.31,2.54,0.81
		C260.01,30.12,260.23,30.61,260.26,31.57z"/>
	<path class="st2" d="M274.92,37.77c0.77-0.77,1.67-1.39,2.76-1.83c1.08-0.4,2.26-0.62,3.59-0.62c1.33,0,2.54,0.22,3.63,0.62
		c1.08,0.43,2.01,1.05,2.79,1.83c0.74,0.77,1.33,1.7,1.77,2.82c0.4,1.08,0.62,2.32,0.62,3.69c0,1.33-0.22,2.57-0.62,3.66
		c-0.43,1.08-1.02,2.01-1.77,2.79c-0.77,0.81-1.7,1.39-2.79,1.8c-1.08,0.43-2.29,0.62-3.63,0.62c-1.33,0-2.51-0.19-3.59-0.62
		c-1.08-0.4-1.98-0.99-2.76-1.8c-0.78-0.77-1.36-1.7-1.77-2.79c-0.4-1.08-0.62-2.32-0.62-3.66c0-1.36,0.22-2.6,0.62-3.69
		C273.55,39.47,274.14,38.54,274.92,37.77z M278.05,48c0.31,0.5,0.74,0.9,1.27,1.21c0.53,0.31,1.18,0.46,1.95,0.46
		c0.81,0,1.46-0.16,1.98-0.46c0.56-0.31,0.96-0.71,1.3-1.21c0.31-0.53,0.53-1.12,0.65-1.74c0.16-0.65,0.22-1.33,0.22-1.98
		c0-0.68-0.06-1.36-0.22-2.01c-0.12-0.65-0.34-1.24-0.65-1.74c-0.34-0.5-0.74-0.9-1.3-1.24c-0.53-0.31-1.18-0.46-1.98-0.46
		c-0.77,0-1.43,0.16-1.95,0.46c-0.53,0.34-0.96,0.74-1.27,1.24c-0.31,0.5-0.53,1.08-0.65,1.74c-0.15,0.65-0.22,1.33-0.22,2.01
		c0,0.65,0.06,1.33,0.22,1.98C277.52,46.88,277.74,47.47,278.05,48z"/>
</g>
<g>
	<path class="st3" d="M288.47,28.94h-0.6V28.9h1.25v0.04h-0.6v1.58h-0.05V28.94z"/>
	<path class="st3" d="M291.03,28.9v1.62h-0.05V29l-0.74,1.29h-0.03L289.48,29v1.52h-0.05V28.9h0.04l0.76,1.33l0.76-1.33H291.03z"/>
</g>
<circle class="st4" cx="289.47" cy="29.66" r="2.53"/>
</svg>
