<?xml version="1.0" encoding="UTF-8"?>
<!DOCTYPE svg PUBLIC "-//W3C//DTD SVG 1.1//EN" "http://www.w3.org/Graphics/SVG/1.1/DTD/svg11.dtd">
<!-- Creator: CorelDRAW X7 -->
<svg xmlns="http://www.w3.org/2000/svg" xml:space="preserve" width="36mm" height="48mm" version="1.1" style="shape-rendering:geometricPrecision; text-rendering:geometricPrecision; image-rendering:optimizeQuality; fill-rule:evenodd; clip-rule:evenodd"
viewBox="0 0 3600 4800"
 xmlns:xlink="http://www.w3.org/1999/xlink">
 <defs>
  <style type="text/css">
   <![CDATA[
    .str0 {stroke:#FEFEFE;stroke-width:20}
    .fil3 {fill:#FEFEFE}
    .fil2 {fill:#FFED00}
    .fil1 {fill:#E31E24}
    .fil0 {fill:#009846}
   ]]>
  </style>
 </defs>
 <g id="Layer_x0020_1">
  <metadata id="CorelCorpID_0Corel-Layer"/>
  <g id="_2173363227792">
   <path class="fil0" d="M972 1559c-5,-32 -4,-63 8,-89 15,-43 31,-70 68,-89l1 82 1 102c0,54 -1,48 55,48 36,-1 74,2 110,-3l4 -248c25,8 37,17 52,32 18,12 36,33 39,62 21,22 24,70 20,96l-12 30c-1,65 -80,120 -151,129 -36,2 -65,0 -91,-17l-46 -29c-29,-21 -48,-58 -58,-106zm1325 -96c5,-15 6,-21 14,-34 13,-25 8,-16 17,-18 18,-30 36,-51 77,-62l0 114 0 102c0,56 0,49 57,48 36,-1 74,3 109,-4l4 -237c109,65 100,245 -16,306 -33,17 -93,37 -128,13 -31,2 -60,-17 -75,-33l-27 -32c-8,-3 -8,-2 -18,-18 -8,-15 -10,-23 -14,-42 -12,-26 -11,-72 0,-103zm-524 -1068c118,0 215,4 314,71 204,135 316,333 316,611l-1164 0c-33,0 -19,-25 -17,-45 16,-142 6,-162 81,-313 22,-46 36,-62 64,-100 75,-100 235,-224 406,-224zm-727 682c-154,0 -307,0 -460,0 -100,0 -290,-17 -290,171l0 2641c0,86 82,155 171,155l2678 0c78,0 156,-78 156,-155l0 -2656c0,-79 -71,-143 -150,-154 -95,-14 -412,5 -541,-1 -40,-2 -36,-5 -37,-45 -2,-304 -197,-655 -469,-769 -215,-89 -436,-90 -640,30 -126,74 -224,180 -295,306 -24,44 -46,91 -63,137 -37,99 -50,216 -60,340z"/>
   <g>
    <path class="fil1" d="M3136 4295l8 0 0 -46c0,-13 0,-22 1,-29 1,-7 2,-14 5,-18 3,-6 8,-10 13,-13 6,-4 12,-5 19,-5 10,0 19,3 26,11 6,5 9,11 10,18 2,7 3,17 3,30l0 52 28 0c10,0 19,2 24,7 6,6 9,12 9,20 0,11 -4,18 -12,22 -8,4 -20,6 -35,6l-14 0 0 141c0,12 0,21 1,28 1,6 3,11 7,15 3,4 9,6 17,6 5,0 11,0 19,-2 7,-1 13,-2 18,-2 6,0 11,2 16,7 5,5 8,11 8,19 0,12 -7,21 -20,28 -14,7 -33,10 -59,10 -24,0 -42,-4 -54,-12 -12,-8 -20,-19 -24,-34 -4,-14 -6,-33 -6,-57l0 -147 -10 0c-11,0 -20,-3 -25,-8 -6,-5 -9,-12 -9,-20 0,-8 3,-14 9,-20 6,-5 15,-7 27,-7zm-188 194l0 64c0,16 -3,27 -11,35 -7,8 -16,12 -27,12 -11,0 -20,-4 -28,-12 -7,-8 -10,-19 -10,-35l0 -213c0,-35 12,-52 37,-52 13,0 22,4 28,12 5,8 8,20 9,36 9,-16 18,-28 28,-36 10,-8 23,-12 39,-12 16,0 31,4 47,12 15,8 22,19 22,32 0,10 -3,17 -9,23 -7,6 -14,9 -21,9 -3,0 -10,-1 -21,-5 -10,-3 -20,-5 -28,-5 -11,0 -21,3 -28,9 -7,6 -12,15 -16,26 -4,12 -7,26 -8,42 -2,16 -3,35 -3,58zm-224 68c-18,14 -36,25 -53,32 -18,7 -37,11 -59,11 -19,0 -37,-4 -52,-12 -15,-8 -26,-18 -34,-31 -8,-14 -12,-28 -12,-44 0,-21 6,-39 20,-53 13,-15 31,-25 55,-30 4,-1 17,-4 36,-8 19,-4 36,-7 49,-11 14,-3 29,-7 45,-11 -1,-21 -5,-36 -12,-45 -7,-9 -22,-14 -45,-14 -19,0 -34,3 -44,8 -10,5 -18,14 -25,24 -7,11 -12,18 -15,22 -3,3 -9,5 -19,5 -8,0 -16,-3 -22,-8 -6,-6 -9,-13 -9,-21 0,-14 4,-27 14,-40 9,-13 24,-23 45,-31 20,-9 45,-13 75,-13 34,0 60,4 80,12 19,8 33,21 41,38 8,17 12,40 12,69 0,18 -1,33 -1,46 0,12 0,26 0,41 0,15 2,30 7,45 5,16 7,26 7,31 0,7 -3,15 -11,21 -7,7 -16,10 -25,10 -8,0 -16,-4 -23,-11 -8,-8 -16,-18 -25,-32zm-448 -108l0 102c0,17 -3,29 -11,37 -7,8 -17,12 -29,12 -11,0 -21,-4 -28,-12 -7,-8 -11,-20 -11,-37l0 -122c0,-19 0,-34 -2,-45 -1,-10 -4,-19 -10,-26 -6,-7 -15,-10 -28,-10 -25,0 -41,8 -49,26 -8,17 -12,42 -12,74l0 103c0,16 -4,28 -11,37 -7,8 -17,12 -29,12 -11,0 -21,-4 -28,-12 -7,-9 -11,-21 -11,-37l0 -219c0,-14 3,-25 10,-33 6,-7 15,-11 26,-11 10,0 19,3 26,10 7,7 11,17 11,30l0 7c13,-16 27,-28 42,-35 16,-8 32,-12 51,-12 19,0 36,4 50,12 14,8 25,19 34,35 13,-16 27,-28 42,-35 14,-8 31,-12 49,-12 21,0 39,5 54,13 15,8 27,20 34,35 7,14 10,36 10,66l0 149c0,17 -4,29 -11,37 -7,8 -17,12 -29,12 -12,0 -21,-4 -28,-12 -8,-9 -12,-21 -12,-37l0 -129c0,-16 0,-29 -2,-39 -1,-10 -5,-18 -11,-25 -6,-7 -16,-10 -28,-10 -10,0 -20,3 -29,9 -9,6 -16,14 -21,24 -6,13 -9,36 -9,68zm443 -3c-11,4 -27,8 -49,13 -21,4 -36,8 -44,10 -9,2 -16,6 -24,12 -7,7 -11,15 -11,27 0,11 4,21 13,29 9,9 20,13 35,13 15,0 29,-4 42,-10 12,-7 22,-16 28,-26 7,-12 10,-31 10,-58l0 -10z"/>
    <path class="fil0" d="M1904 4252c-11,0 -20,-3 -27,-10 -8,-6 -12,-15 -12,-27 0,-11 4,-20 12,-27 8,-7 17,-11 27,-11 10,0 19,4 26,10 8,6 12,16 12,28 0,11 -4,21 -11,27 -8,7 -17,10 -27,10zm38 79l0 222c0,16 -4,27 -11,35 -7,8 -16,12 -28,12 -11,0 -20,-4 -27,-12 -7,-8 -11,-20 -11,-35l0 -219c0,-15 4,-27 11,-35 7,-7 16,-11 27,-11 12,0 21,4 28,11 7,8 11,19 11,32zm-276 -36l8 0 0 -46c0,-13 1,-22 1,-29 1,-7 3,-14 6,-18 3,-6 7,-10 13,-13 5,-4 12,-5 19,-5 9,0 18,3 26,11 5,5 8,11 10,18 1,7 2,17 2,30l0 52 28 0c11,0 19,2 25,7 6,6 9,12 9,20 0,11 -5,18 -13,22 -8,4 -20,6 -35,6l-14 0 0 141c0,12 0,21 1,28 1,6 3,11 7,15 4,4 10,6 18,6 4,0 10,0 18,-2 8,-1 14,-2 18,-2 6,0 12,2 17,7 5,5 7,11 7,19 0,12 -7,21 -20,28 -13,7 -33,10 -58,10 -24,0 -42,-4 -55,-12 -12,-8 -20,-19 -24,-34 -4,-14 -6,-33 -6,-57l0 -147 -10 0c-11,0 -19,-3 -25,-8 -6,-5 -9,-12 -9,-20 0,-8 3,-14 9,-20 7,-5 15,-7 27,-7zm-187 194l0 64c0,16 -4,27 -11,35 -8,8 -17,12 -28,12 -11,0 -20,-4 -27,-12 -7,-8 -11,-19 -11,-35l0 -213c0,-35 13,-52 37,-52 13,0 22,4 28,12 6,8 9,20 9,36 9,-16 19,-28 28,-36 10,-8 23,-12 39,-12 16,0 32,4 47,12 15,8 23,19 23,32 0,10 -3,17 -10,23 -6,6 -13,9 -21,9 -3,0 -10,-1 -20,-5 -11,-3 -21,-5 -29,-5 -11,0 -20,3 -27,9 -7,6 -13,15 -17,26 -4,12 -7,26 -8,42 -2,16 -2,35 -2,58zm-224 68c-19,14 -37,25 -54,32 -17,7 -37,11 -58,11 -20,0 -37,-4 -52,-12 -15,-8 -27,-18 -35,-31 -8,-14 -12,-28 -12,-44 0,-21 7,-39 20,-53 13,-15 32,-25 55,-30 5,-1 17,-4 36,-8 20,-4 36,-7 50,-11 14,-3 28,-7 45,-11 -1,-21 -5,-36 -13,-45 -7,-9 -22,-14 -44,-14 -20,0 -35,3 -44,8 -10,5 -19,14 -26,24 -7,11 -12,18 -15,22 -3,3 -9,5 -18,5 -9,0 -16,-3 -23,-8 -6,-6 -9,-13 -9,-21 0,-14 5,-27 14,-40 10,-13 25,-23 45,-31 20,-9 45,-13 76,-13 33,0 60,4 79,12 19,8 33,21 41,38 8,17 12,40 12,69 0,18 0,33 0,46 0,12 0,26 -1,41 0,15 3,30 8,45 4,16 7,26 7,31 0,7 -4,15 -11,21 -8,7 -16,10 -26,10 -7,0 -15,-4 -23,-11 -8,-8 -16,-18 -24,-32zm-467 -336l0 113c10,-11 19,-20 29,-26 9,-7 19,-12 30,-15 12,-3 24,-5 37,-5 19,0 36,4 52,12 15,9 26,21 35,36 6,9 9,20 11,31 2,11 3,24 3,39l0 147c0,16 -4,27 -11,35 -7,8 -16,12 -28,12 -25,0 -38,-16 -38,-47l0 -129c0,-25 -3,-44 -11,-57 -7,-13 -21,-20 -41,-20 -14,0 -26,4 -37,12 -11,8 -19,18 -25,32 -4,11 -6,31 -6,61l0 101c0,15 -3,27 -10,35 -7,8 -16,12 -28,12 -26,0 -38,-16 -38,-47l0 -332c0,-16 3,-28 10,-35 6,-8 16,-12 28,-12 12,0 21,4 28,12 7,8 10,19 10,35zm-444 -40l109 0c28,0 53,2 73,8 20,5 39,15 55,29 43,37 64,93 64,168 0,25 -2,47 -6,68 -4,20 -11,38 -20,55 -9,16 -21,31 -35,44 -11,10 -23,18 -36,24 -13,6 -27,10 -42,12 -15,3 -32,4 -51,4l-109 0c-15,0 -26,-2 -34,-7 -8,-5 -13,-11 -15,-19 -3,-9 -4,-20 -4,-33l0 -302c0,-18 4,-31 12,-39 8,-8 21,-12 39,-12zm33 66l0 280 63 0c14,0 25,-1 33,-1 7,-1 16,-3 24,-6 8,-3 16,-7 22,-13 28,-23 42,-64 42,-122 0,-40 -6,-71 -19,-91 -12,-20 -27,-33 -45,-39 -18,-5 -40,-8 -65,-8l-55 0zm873 199c-12,4 -28,8 -49,13 -22,4 -37,8 -45,10 -8,2 -16,6 -23,12 -8,7 -12,15 -12,27 0,11 5,21 14,29 8,9 20,13 34,13 15,0 29,-4 42,-10 13,-7 22,-16 28,-26 7,-12 11,-31 11,-58l0 -10z"/>
   </g>
   <path class="fil2" d="M1974 2347c0,7 10,14 15,17 18,10 121,5 150,5l2 980c0,14 2,21 2,36 -1,54 30,39 67,45 15,2 160,1 182,1 6,0 27,-21 27,-34 0,-11 -16,-30 -21,-38 -18,-23 -34,-48 -47,-74 -7,-13 -14,-27 -19,-41 -27,-74 -25,-75 -35,-146 -2,-15 -2,-68 -1,-83 1,-7 2,-21 3,-28 6,-39 11,-62 23,-98 16,-50 54,-113 85,-155 11,-14 12,-26 12,-49l0 -316c22,0 135,3 151,-3 10,-4 17,-19 17,-33 0,-8 -131,-216 -146,-241l-56 -89c-7,-10 -13,-20 -20,-30l-57 -89c-8,-12 -13,-20 -31,-20 -5,0 -13,4 -16,7 -7,6 -56,87 -68,104 -7,11 -12,20 -19,30 -52,87 -120,188 -169,274 -10,16 -31,49 -31,68z"/>
   <path class="fil2" d="M1744 2994l2 280c0,42 0,82 1,123 2,37 41,30 60,33 16,2 165,1 190,1 5,0 27,-22 27,-27l0 -785c0,-5 -20,-24 -25,-24 -38,0 -201,-3 -227,2 -8,1 -11,5 -17,11 -12,13 -7,26 -7,49l-4 337z"/>
   <path class="fil2" d="M1350 3344c0,17 2,30 2,45 0,16 3,28 14,34 23,12 203,8 238,8 4,0 26,-22 26,-27l0 -548c0,-5 -23,-29 -28,-29 -26,0 -142,-1 -162,2 -17,2 -41,0 -58,2 -22,2 -25,11 -29,32 -2,14 -3,39 -3,57l0 424z"/>
   <path class="fil3 str0" d="M2753 2649c223,0 403,180 403,403 0,223 -180,403 -403,403 -223,0 -403,-180 -403,-403 0,-223 180,-403 403,-403z"/>
   <path class="fil2" d="M771 3200c-51,-93 -13,-480 289,-435 -13,127 -141,453 -289,435zm256 -970l-29 147 131 14 -31 189c-337,-32 -532,164 -573,466 -69,513 340,409 470,151l-51 193c280,2 209,62 275,-283 19,-99 37,-198 56,-296 37,-185 92,-416 112,-597 -92,-9 -271,-3 -360,16z"/>
   <path class="fil0" d="M771 3189c148,19 276,-308 289,-434 -302,-46 -340,341 -289,434z"/>
   <path class="fil0" d="M2562 3266c0,4 -5,16 -6,21 -7,21 -14,46 -18,67 -2,7 -6,17 4,20 11,3 12,-8 14,-15 6,-30 16,-59 25,-88 1,-4 2,-7 3,-11 3,-7 1,-5 8,-8 7,-4 14,-7 21,-11 12,-7 78,-45 84,-46 4,3 6,8 15,14 21,15 46,14 69,7 6,-2 28,-10 30,-16 0,-5 -6,-5 -8,-6 -36,-12 -47,-37 -82,-28 -33,9 -73,34 -105,51 -6,4 -14,8 -20,11 3,-12 23,-56 30,-70 10,-22 22,-46 35,-66 6,-10 10,-15 16,-23 3,-4 2,-5 7,-3 13,6 31,5 44,0 13,-4 24,-13 33,-22 6,-6 23,-24 18,-32 -4,-1 -15,2 -20,2 -25,2 -42,-5 -60,5 -17,9 -34,34 -45,49 -24,33 -46,82 -62,119 -5,12 -14,36 -18,47 -4,10 -5,8 -13,12 -26,12 -66,27 -94,34 -6,2 -14,3 -13,11 0,7 6,10 13,8 7,-2 14,-3 21,-5 13,-4 25,-8 38,-13 9,-3 30,-11 36,-15z"/>
   <path class="fil0" d="M2832 2817c-12,3 -18,6 -26,15 -6,6 -3,4 0,12 9,25 -5,23 15,24 6,0 12,0 17,-1 24,-1 38,-12 52,-29 2,-4 17,-21 10,-24 -1,-1 -15,2 -18,2 -6,0 -11,1 -17,0 -9,0 -26,-2 -33,1z"/>
   <path class="fil0" d="M2923 3052c-11,3 -6,1 -8,12 -4,24 -14,17 -1,25 13,8 25,16 41,16 27,1 71,-20 54,-25 -39,-11 -50,-39 -86,-28z"/>
   <path class="fil0" d="M2793 2883c-11,2 -18,7 -26,14 -10,9 -1,1 2,29 1,8 -3,7 10,7 32,1 48,-2 70,-27 3,-4 15,-20 11,-25 -2,-2 -13,1 -17,1 -6,1 -11,1 -17,1 -10,0 -24,-2 -33,0z"/>
   <path class="fil0" d="M2751 2949c-11,3 -18,7 -26,15 -6,6 -3,4 0,12 7,19 0,23 7,23 18,0 39,3 57,-9 7,-5 14,-13 20,-19 2,-4 16,-21 10,-24 -2,-1 -15,1 -18,1 -17,2 -40,-2 -50,1z"/>
   <path class="fil0" d="M2857 3091c-12,3 -8,0 -9,11 -4,23 -14,18 -2,25 29,17 44,24 77,10 3,-1 30,-12 19,-18 -3,-2 -9,-3 -14,-5 -4,-2 -9,-4 -13,-7 -21,-12 -32,-24 -58,-16z"/>
   <path class="fil0" d="M2790 3128c-11,4 -8,0 -9,11 -4,28 -20,16 10,33 24,13 38,13 64,4 3,-2 30,-12 20,-18 -1,-1 -10,-4 -13,-6 -5,-2 -9,-4 -13,-6 -21,-12 -33,-24 -59,-18z"/>
   <path class="fil0" d="M2976 3047c6,3 13,8 20,12 6,3 22,0 29,-2 27,-9 35,-24 41,-28 -6,-7 -16,-12 -24,-16 -10,-5 -20,-7 -31,-8 -4,-1 -14,0 -18,1 -11,3 -10,-1 -10,11 0,19 -6,23 -7,30z"/>
   <path class="fil0" d="M2851 2801c7,-1 24,2 29,-1 16,-9 25,-19 34,-35 2,-5 8,-19 7,-24 -8,-2 -23,-2 -32,-1 -12,1 -21,3 -32,9 -4,3 -8,5 -11,9 -7,6 -7,4 -3,11 3,7 7,15 8,23 0,3 0,6 0,9z"/>
   <path class="fil0" d="M2709 3155c2,-1 5,-2 8,-3 13,-3 27,-4 40,1 3,1 3,0 5,-3 6,-13 4,-25 4,-40 0,-8 0,-22 3,-31 3,-8 -4,-8 -9,-5 -4,2 -9,5 -12,8 -23,17 -43,43 -39,73z"/>
   <path class="fil0" d="M2681 2924c-11,4 -21,39 -23,50 -2,18 1,32 10,47 2,4 2,2 4,0 8,-9 20,-17 30,-20 13,-4 12,0 11,-9 0,-5 -2,-11 -5,-16 -7,-13 -15,-26 -20,-41 -1,-4 -2,-13 -7,-11z"/>
   <path class="fil0" d="M2781 3115c4,-1 5,-2 12,-3 20,-3 31,4 34,3 11,-13 3,-44 9,-71 0,-4 3,-10 -4,-9 -3,0 -8,3 -11,4 -9,6 -26,21 -32,30 -7,12 -9,32 -8,46z"/>
   <path class="fil0" d="M2848 3077c9,-4 26,-5 36,-3 3,1 8,3 10,4 11,-12 3,-48 9,-72 1,-3 3,-10 -3,-10 -3,0 -9,3 -11,5 -9,6 -27,20 -32,30 -7,12 -10,32 -9,46z"/>
   <path class="fil0" d="M2713 2954c6,-4 7,-7 17,-13 6,-4 16,-8 24,-8 4,-10 -12,-35 -17,-44 -3,-7 -7,-15 -9,-22 -1,-3 -2,-10 -7,-9 -3,2 -5,6 -7,8 -7,12 -13,27 -15,41 -1,8 1,18 4,26 3,7 8,15 10,21z"/>
   <path class="fil0" d="M2754 2888c6,-4 8,-8 17,-13 11,-6 13,-6 24,-8 -1,-11 -1,-14 -6,-24 -6,-11 -18,-32 -21,-43 -1,-3 -1,-10 -7,-7 -8,4 -20,37 -21,48 -1,8 1,19 4,26 3,8 7,14 10,21z"/>
   <path class="fil0" d="M2916 3038c15,-3 21,-5 36,-2 2,0 10,3 10,3 8,-11 6,-34 6,-48 0,-8 1,-16 3,-24 1,-3 4,-9 -3,-9 -3,0 -8,3 -11,5 -11,7 -24,18 -32,29 -8,12 -11,32 -9,46z"/>
   <path class="fil0" d="M2794 2822c1,-1 7,-6 8,-7 6,-5 13,-9 21,-12 5,-1 8,-1 13,-2 0,-19 -10,-29 -17,-45 -4,-7 -7,-14 -10,-22 0,-3 -1,-11 -6,-8 -2,2 -6,6 -7,9 -7,12 -12,26 -15,40 -3,19 6,31 13,47z"/>
   <path class="fil0" d="M2832 2749c0,0 10,-8 12,-9 9,-7 20,-11 31,-13 4,-1 6,-2 10,-2 2,0 8,-1 10,-1 4,-6 1,-32 -1,-39 -1,-3 0,-3 -8,0 -10,3 -16,6 -25,11 -8,5 -18,14 -23,23 -2,3 -10,17 -10,22 0,1 3,7 4,8z"/>
   <path class="fil0" d="M2984 2993c3,-2 14,-3 19,-3 6,-1 12,0 18,1 17,2 25,8 30,9 4,-3 9,-12 11,-17 2,-3 3,-6 4,-9 2,-4 3,-7 2,-11 -3,0 -8,-1 -11,-2 -25,-4 -53,1 -71,20 -3,3 -3,8 -2,12z"/>
  </g>
 </g>
</svg>
